<mxfile host="app.diagrams.net" modified="2021-09-07T15:47:03.072Z" agent="5.0 (Windows)" etag="pDTO5FGQUWZrxrCOfuN9" version="15.1.0" type="github">
  <diagram id="MnK0ORM86gz5xZihdEy-" name="Page-1">
    <mxGraphModel dx="1185" dy="658" grid="1" gridSize="10" guides="1" tooltips="1" connect="1" arrows="1" fold="1" page="1" pageScale="1" pageWidth="1169" pageHeight="827" math="0" shadow="0">
      <root>
        <mxCell id="0" />
        <mxCell id="1" parent="0" />
        <mxCell id="LlRQoz635zSCLX_kE1pg-1" value="github.com/INPMT" style="shape=umlLifeline;perimeter=lifelinePerimeter;whiteSpace=wrap;html=1;container=1;collapsible=0;recursiveResize=0;outlineConnect=0;" parent="1" vertex="1">
          <mxGeometry x="200" y="280" width="120" height="250" as="geometry" />
        </mxCell>
        <mxCell id="LlRQoz635zSCLX_kE1pg-2" value="&lt;ul style=&quot;font-size: 13px&quot;&gt;&lt;li style=&quot;font-size: 13px&quot;&gt;2d1a46e&lt;/li&gt;&lt;li style=&quot;font-size: 13px&quot;&gt;41a9945&lt;/li&gt;&lt;li style=&quot;font-size: 13px&quot;&gt;443ac7d&lt;/li&gt;&lt;li style=&quot;font-size: 13px&quot;&gt;1a91cff&lt;/li&gt;&lt;li style=&quot;font-size: 13px&quot;&gt;13c187b&lt;/li&gt;&lt;li style=&quot;font-size: 13px&quot;&gt;dbb1bc3&lt;/li&gt;&lt;li style=&quot;font-size: 13px&quot;&gt;fa6969bb&lt;/li&gt;&lt;li style=&quot;font-size: 13px&quot;&gt;586d3bf9&lt;/li&gt;&lt;li style=&quot;font-size: 13px&quot;&gt;94805ad&lt;/li&gt;&lt;li style=&quot;font-size: 13px&quot;&gt;9863ead&lt;/li&gt;&lt;li style=&quot;font-size: 13px&quot;&gt;3314afa5&lt;/li&gt;&lt;li style=&quot;font-size: 13px&quot;&gt;b5316e3&lt;/li&gt;&lt;/ul&gt;" style="text;strokeColor=none;fillColor=none;html=1;whiteSpace=wrap;verticalAlign=top;overflow=hidden;align=left;horizontal=1;fontSize=13;fontStyle=0;fontFamily=Garamond;connectable=0;" parent="1" vertex="1">
          <mxGeometry x="230" y="310" width="120" height="210" as="geometry" />
        </mxCell>
        <mxCell id="LlRQoz635zSCLX_kE1pg-4" value="INPMT" style="shape=folder;fontStyle=1;spacingTop=10;tabWidth=40;tabHeight=14;tabPosition=left;html=1;fontFamily=Garamond;fontSize=13;align=left;verticalAlign=top;" parent="1" vertex="1">
          <mxGeometry x="380" y="260" width="480" height="260" as="geometry" />
        </mxCell>
        <mxCell id="_idz-lx5FoL1csfphhJT-2" value="Dépôt en ligne" style="text;html=1;strokeColor=none;fillColor=none;align=center;verticalAlign=middle;whiteSpace=wrap;rounded=0;labelBackgroundColor=none;fontFamily=Garamond;fontSize=13;" parent="1" vertex="1">
          <mxGeometry x="200" y="240" width="120" height="40" as="geometry" />
        </mxCell>
        <mxCell id="BWBMxFKH88TfoQagAiQt-11" style="edgeStyle=orthogonalEdgeStyle;curved=1;orthogonalLoop=1;jettySize=auto;html=1;exitX=0.5;exitY=0;exitDx=0;exitDy=0;entryX=0.5;entryY=1;entryDx=0;entryDy=0;fontFamily=Garamond;fontSize=13;startArrow=none;startFill=0;endArrow=openThin;endFill=0;strokeColor=#000000;" edge="1" parent="1" source="_idz-lx5FoL1csfphhJT-3" target="BWBMxFKH88TfoQagAiQt-9">
          <mxGeometry relative="1" as="geometry" />
        </mxCell>
        <mxCell id="_idz-lx5FoL1csfphhJT-3" value="&lt;div&gt;.circleci.yml&lt;/div&gt;&lt;div&gt;LICENSE&lt;/div&gt;&lt;div&gt;README.md&lt;br&gt;&lt;/div&gt;&lt;div&gt;setup.py&lt;/div&gt;&lt;div&gt;setup.cfg&lt;/div&gt;&lt;div&gt;tox.ini&lt;br&gt;&lt;/div&gt;" style="rounded=0;whiteSpace=wrap;html=1;labelBackgroundColor=none;fontFamily=Garamond;fontSize=13;align=left;verticalAlign=top;strokeWidth=0.5;" parent="1" vertex="1">
          <mxGeometry x="715" y="375" width="135" height="110" as="geometry" />
        </mxCell>
        <mxCell id="_idz-lx5FoL1csfphhJT-4" value="" style="rounded=0;whiteSpace=wrap;html=1;labelBackgroundColor=none;fontFamily=Garamond;fontSize=13;align=left;verticalAlign=top;strokeWidth=1;dashed=1;" parent="1" vertex="1">
          <mxGeometry x="390" y="302.5" width="310" height="210" as="geometry" />
        </mxCell>
        <mxCell id="_idz-lx5FoL1csfphhJT-11" value="processing" style="rounded=0;whiteSpace=wrap;html=1;labelBackgroundColor=none;fontFamily=Garamond;fontSize=13;align=center;verticalAlign=middle;strokeWidth=0.5;" parent="1" vertex="1">
          <mxGeometry x="410" y="315" width="60" height="45" as="geometry" />
        </mxCell>
        <mxCell id="_idz-lx5FoL1csfphhJT-39" style="edgeStyle=orthogonalEdgeStyle;rounded=1;orthogonalLoop=1;jettySize=auto;html=1;exitX=0;exitY=0.5;exitDx=0;exitDy=0;entryX=1;entryY=0.5;entryDx=0;entryDy=0;fontFamily=Garamond;fontSize=13;endArrow=openThin;endFill=0;strokeColor=#808080;" parent="1" source="_idz-lx5FoL1csfphhJT-12" target="_idz-lx5FoL1csfphhJT-11" edge="1">
          <mxGeometry relative="1" as="geometry" />
        </mxCell>
        <mxCell id="_idz-lx5FoL1csfphhJT-12" value="main" style="rounded=0;whiteSpace=wrap;html=1;labelBackgroundColor=none;fontFamily=Garamond;fontSize=13;align=center;verticalAlign=middle;strokeWidth=0.5;" parent="1" vertex="1">
          <mxGeometry x="515" y="315" width="60" height="45" as="geometry" />
        </mxCell>
        <mxCell id="_idz-lx5FoL1csfphhJT-26" style="edgeStyle=orthogonalEdgeStyle;rounded=1;orthogonalLoop=1;jettySize=auto;html=1;exitX=0;exitY=0.5;exitDx=0;exitDy=0;entryX=1;entryY=0.5;entryDx=0;entryDy=0;fontFamily=Garamond;fontSize=13;endArrow=openThin;endFill=0;" parent="1" source="_idz-lx5FoL1csfphhJT-13" target="_idz-lx5FoL1csfphhJT-12" edge="1">
          <mxGeometry relative="1" as="geometry" />
        </mxCell>
        <mxCell id="BWBMxFKH88TfoQagAiQt-12" style="edgeStyle=orthogonalEdgeStyle;curved=1;orthogonalLoop=1;jettySize=auto;html=1;exitX=1;exitY=0.5;exitDx=0;exitDy=0;entryX=0;entryY=0.25;entryDx=0;entryDy=0;fontFamily=Garamond;fontSize=13;startArrow=none;startFill=0;endArrow=openThin;endFill=0;strokeColor=#000000;" edge="1" parent="1" source="_idz-lx5FoL1csfphhJT-13" target="_idz-lx5FoL1csfphhJT-3">
          <mxGeometry relative="1" as="geometry">
            <Array as="points">
              <mxPoint x="690" y="337" />
              <mxPoint x="690" y="403" />
              <mxPoint x="715" y="403" />
            </Array>
          </mxGeometry>
        </mxCell>
        <mxCell id="_idz-lx5FoL1csfphhJT-13" value="init" style="rounded=0;whiteSpace=wrap;html=1;labelBackgroundColor=none;fontFamily=Garamond;fontSize=13;align=center;verticalAlign=middle;strokeWidth=0.5;" parent="1" vertex="1">
          <mxGeometry x="620" y="315" width="60" height="45" as="geometry" />
        </mxCell>
        <mxCell id="_idz-lx5FoL1csfphhJT-20" style="edgeStyle=orthogonalEdgeStyle;rounded=1;orthogonalLoop=1;jettySize=auto;html=1;exitX=0.1;exitY=0.5;exitDx=0;exitDy=0;exitPerimeter=0;fontFamily=Garamond;fontSize=13;" parent="1" source="BWBMxFKH88TfoQagAiQt-7" edge="1">
          <mxGeometry relative="1" as="geometry">
            <mxPoint x="320" y="340" as="targetPoint" />
            <Array as="points">
              <mxPoint x="340" y="400" />
              <mxPoint x="340" y="340" />
            </Array>
            <mxPoint x="230" y="410" as="sourcePoint" />
          </mxGeometry>
        </mxCell>
        <mxCell id="_idz-lx5FoL1csfphhJT-21" value="" style="rounded=0;whiteSpace=wrap;html=1;labelBackgroundColor=none;fontFamily=Garamond;fontSize=13;align=center;verticalAlign=middle;dashed=1;dashPattern=1 4;" parent="1" vertex="1">
          <mxGeometry x="400" y="440" width="290" height="62.5" as="geometry" />
        </mxCell>
        <mxCell id="_idz-lx5FoL1csfphhJT-43" style="edgeStyle=orthogonalEdgeStyle;rounded=0;orthogonalLoop=1;jettySize=auto;html=1;exitX=0;exitY=0.5;exitDx=0;exitDy=0;entryX=1;entryY=0.5;entryDx=0;entryDy=0;fontFamily=Garamond;fontSize=13;startArrow=none;startFill=0;endArrow=openThin;endFill=0;strokeColor=#CCCCCC;" parent="1" source="_idz-lx5FoL1csfphhJT-7" target="_idz-lx5FoL1csfphhJT-6" edge="1">
          <mxGeometry relative="1" as="geometry" />
        </mxCell>
        <mxCell id="BWBMxFKH88TfoQagAiQt-1" style="edgeStyle=orthogonalEdgeStyle;rounded=0;orthogonalLoop=1;jettySize=auto;html=1;exitX=0;exitY=0.75;exitDx=0;exitDy=0;entryX=1;entryY=0.75;entryDx=0;entryDy=0;fontFamily=Garamond;fontSize=13;startArrow=none;startFill=0;endArrow=openThin;endFill=0;strokeColor=#CCCCCC;" edge="1" parent="1" source="_idz-lx5FoL1csfphhJT-7" target="_idz-lx5FoL1csfphhJT-5">
          <mxGeometry relative="1" as="geometry">
            <Array as="points">
              <mxPoint x="600" y="484" />
              <mxPoint x="600" y="500" />
              <mxPoint x="490" y="500" />
              <mxPoint x="490" y="484" />
            </Array>
          </mxGeometry>
        </mxCell>
        <mxCell id="_idz-lx5FoL1csfphhJT-7" value="raster" style="rounded=0;whiteSpace=wrap;html=1;labelBackgroundColor=none;fontFamily=Garamond;fontSize=13;align=center;verticalAlign=middle;strokeWidth=0.5;" parent="1" vertex="1">
          <mxGeometry x="620" y="450" width="60" height="45" as="geometry" />
        </mxCell>
        <mxCell id="_idz-lx5FoL1csfphhJT-6" value="utils" style="rounded=0;whiteSpace=wrap;html=1;labelBackgroundColor=none;fontFamily=Garamond;fontSize=13;align=center;verticalAlign=middle;strokeWidth=0.5;" parent="1" vertex="1">
          <mxGeometry x="515" y="450" width="60" height="45" as="geometry" />
        </mxCell>
        <mxCell id="_idz-lx5FoL1csfphhJT-42" style="edgeStyle=orthogonalEdgeStyle;rounded=0;orthogonalLoop=1;jettySize=auto;html=1;exitX=1;exitY=0.5;exitDx=0;exitDy=0;entryX=0;entryY=0.5;entryDx=0;entryDy=0;fontFamily=Garamond;fontSize=13;endArrow=openThin;endFill=0;startArrow=none;startFill=0;strokeColor=#CCCCCC;" parent="1" source="_idz-lx5FoL1csfphhJT-5" target="_idz-lx5FoL1csfphhJT-6" edge="1">
          <mxGeometry relative="1" as="geometry" />
        </mxCell>
        <mxCell id="_idz-lx5FoL1csfphhJT-5" value="vector" style="rounded=0;whiteSpace=wrap;html=1;labelBackgroundColor=none;fontFamily=Garamond;fontSize=13;align=center;verticalAlign=middle;strokeWidth=0.5;" parent="1" vertex="1">
          <mxGeometry x="410" y="450" width="60" height="45" as="geometry" />
        </mxCell>
        <mxCell id="_idz-lx5FoL1csfphhJT-32" value="utils" style="text;html=1;strokeColor=none;fillColor=none;align=center;verticalAlign=middle;whiteSpace=wrap;rounded=0;labelBackgroundColor=none;fontFamily=Garamond;fontSize=13;fontStyle=1" parent="1" vertex="1">
          <mxGeometry x="400" y="420" width="30" height="20" as="geometry" />
        </mxCell>
        <mxCell id="_idz-lx5FoL1csfphhJT-34" style="edgeStyle=orthogonalEdgeStyle;rounded=0;orthogonalLoop=1;jettySize=auto;html=1;exitX=0.25;exitY=1;exitDx=0;exitDy=0;entryX=0.5;entryY=0;entryDx=0;entryDy=0;fontFamily=Garamond;fontSize=13;endArrow=openThin;endFill=0;strokeColor=#CCCCCC;" parent="1" source="_idz-lx5FoL1csfphhJT-11" target="_idz-lx5FoL1csfphhJT-5" edge="1">
          <mxGeometry relative="1" as="geometry">
            <Array as="points">
              <mxPoint x="425" y="400" />
              <mxPoint x="440" y="400" />
            </Array>
          </mxGeometry>
        </mxCell>
        <mxCell id="_idz-lx5FoL1csfphhJT-36" style="edgeStyle=orthogonalEdgeStyle;rounded=0;orthogonalLoop=1;jettySize=auto;html=1;exitX=0.5;exitY=1;exitDx=0;exitDy=0;entryX=0.25;entryY=0;entryDx=0;entryDy=0;fontFamily=Garamond;fontSize=13;endArrow=openThin;endFill=0;strokeColor=#CCCCCC;" parent="1" source="_idz-lx5FoL1csfphhJT-11" target="_idz-lx5FoL1csfphhJT-6" edge="1">
          <mxGeometry relative="1" as="geometry">
            <Array as="points">
              <mxPoint x="440" y="390" />
              <mxPoint x="530" y="390" />
            </Array>
          </mxGeometry>
        </mxCell>
        <mxCell id="_idz-lx5FoL1csfphhJT-41" style="edgeStyle=orthogonalEdgeStyle;rounded=0;orthogonalLoop=1;jettySize=auto;html=1;exitX=0.75;exitY=1;exitDx=0;exitDy=0;entryX=0.5;entryY=0;entryDx=0;entryDy=0;fontFamily=Garamond;fontSize=13;endArrow=openThin;endFill=0;strokeColor=#CCCCCC;" parent="1" source="_idz-lx5FoL1csfphhJT-11" target="_idz-lx5FoL1csfphhJT-7" edge="1">
          <mxGeometry relative="1" as="geometry">
            <Array as="points">
              <mxPoint x="455" y="380" />
              <mxPoint x="650" y="380" />
            </Array>
          </mxGeometry>
        </mxCell>
        <mxCell id="_idz-lx5FoL1csfphhJT-40" style="edgeStyle=orthogonalEdgeStyle;rounded=0;orthogonalLoop=1;jettySize=auto;html=1;exitX=0.5;exitY=1;exitDx=0;exitDy=0;entryX=0.75;entryY=0;entryDx=0;entryDy=0;fontFamily=Garamond;fontSize=13;endArrow=openThin;endFill=0;strokeColor=#000000;" parent="1" source="_idz-lx5FoL1csfphhJT-13" target="_idz-lx5FoL1csfphhJT-6" edge="1">
          <mxGeometry relative="1" as="geometry">
            <Array as="points">
              <mxPoint x="650" y="370" />
              <mxPoint x="560" y="370" />
            </Array>
          </mxGeometry>
        </mxCell>
        <mxCell id="_idz-lx5FoL1csfphhJT-38" style="edgeStyle=orthogonalEdgeStyle;rounded=1;orthogonalLoop=1;jettySize=auto;html=1;exitX=0.5;exitY=1;exitDx=0;exitDy=0;fontFamily=Garamond;fontSize=13;endArrow=openThin;endFill=0;strokeColor=#808080;" parent="1" source="_idz-lx5FoL1csfphhJT-12" edge="1">
          <mxGeometry relative="1" as="geometry">
            <mxPoint x="545.2857142857142" y="450" as="targetPoint" />
            <Array as="points">
              <mxPoint x="545" y="410" />
              <mxPoint x="545" y="410" />
            </Array>
          </mxGeometry>
        </mxCell>
        <mxCell id="BWBMxFKH88TfoQagAiQt-2" value="PYPI" style="shape=umlLifeline;perimeter=lifelinePerimeter;html=1;container=1;collapsible=0;recursiveResize=0;outlineConnect=0;whiteSpace=wrap;" vertex="1" parent="1">
          <mxGeometry x="880" y="280" width="80" height="250" as="geometry" />
        </mxCell>
        <mxCell id="BWBMxFKH88TfoQagAiQt-3" value="&lt;ul style=&quot;font-size: 13px&quot;&gt;&lt;li style=&quot;font-size: 13px&quot;&gt;...&lt;br&gt;&lt;/li&gt;&lt;li style=&quot;font-size: 13px&quot;&gt;v0.1.2&lt;br&gt;&lt;/li&gt;&lt;li style=&quot;font-size: 13px&quot;&gt;v0.1.1&lt;br&gt;&lt;/li&gt;&lt;li style=&quot;font-size: 13px&quot;&gt;v0.1.0&lt;br&gt;&lt;/li&gt;&lt;/ul&gt;" style="text;strokeColor=none;fillColor=none;html=1;whiteSpace=wrap;verticalAlign=top;overflow=hidden;align=left;horizontal=1;fontSize=13;fontStyle=0;fontFamily=Garamond;connectable=0;labelBorderColor=none;" vertex="1" parent="1">
          <mxGeometry x="880" y="310" width="80" height="220" as="geometry" />
        </mxCell>
        <mxCell id="BWBMxFKH88TfoQagAiQt-4" value="Dépôt de package" style="text;html=1;strokeColor=none;fillColor=none;align=center;verticalAlign=middle;whiteSpace=wrap;rounded=0;labelBackgroundColor=none;fontFamily=Garamond;fontSize=13;" vertex="1" parent="1">
          <mxGeometry x="880" y="240" width="80" height="40" as="geometry" />
        </mxCell>
        <mxCell id="BWBMxFKH88TfoQagAiQt-7" value="" style="shape=curlyBracket;whiteSpace=wrap;html=1;rounded=1;fontFamily=Garamond;fontSize=13;strokeWidth=1;align=center;verticalAlign=middle;" vertex="1" parent="1">
          <mxGeometry x="360" y="280" width="20" height="240" as="geometry" />
        </mxCell>
        <mxCell id="BWBMxFKH88TfoQagAiQt-10" style="edgeStyle=orthogonalEdgeStyle;curved=1;orthogonalLoop=1;jettySize=auto;html=1;exitX=1;exitY=0.5;exitDx=0;exitDy=0;fontFamily=Garamond;fontSize=13;startArrow=none;startFill=0;endArrow=openThin;endFill=0;strokeColor=#000000;" edge="1" parent="1" source="BWBMxFKH88TfoQagAiQt-9">
          <mxGeometry relative="1" as="geometry">
            <mxPoint x="910" y="338" as="targetPoint" />
            <Array as="points">
              <mxPoint x="910" y="338" />
            </Array>
          </mxGeometry>
        </mxCell>
        <mxCell id="BWBMxFKH88TfoQagAiQt-9" value="&lt;div&gt;.egg-info&lt;/div&gt;&lt;div&gt;.whl&lt;br&gt;&lt;/div&gt;" style="rounded=0;whiteSpace=wrap;html=1;labelBackgroundColor=none;fontFamily=Garamond;fontSize=13;align=center;verticalAlign=top;strokeWidth=0.5;" vertex="1" parent="1">
          <mxGeometry x="715" y="315" width="135" height="45" as="geometry" />
        </mxCell>
        <mxCell id="BWBMxFKH88TfoQagAiQt-13" value="GIT" style="text;html=1;strokeColor=none;fillColor=none;align=center;verticalAlign=middle;whiteSpace=wrap;rounded=0;fontFamily=Garamond;fontSize=13;" vertex="1" parent="1">
          <mxGeometry x="330" y="315" width="40" height="20" as="geometry" />
        </mxCell>
      </root>
    </mxGraphModel>
  </diagram>
</mxfile>
